PathFileType	4	(X/Y/Z)	C:\Users\JDoe\SprintMotion.trc
DataRate	CameraRate	NumFrames	NumMarkers	Units	OrigDataRate	OrigDataStartFrame	OrigNumFrames
250.00	250.00	       5	59	mm	250.00	493	       788
Frame#	Time	C7			T8			T12			R.AA			R.AC			R.Scapula			R.HeadHum			R.Hum			R.Epi.Med			R.Epi.Lat			R.Ulna			R.Wrist.Uln			R.Wrist.Rad			R.Hand			L.AA			L.AC			L.Scapula			L.HeadHum			L.Hum			L.Epi.Med			L.Epi.Lat			L.Ulna			L.Wrist.Uln			L.Wrist.Rad			L.Hand			Tete.H			Tete.D			Tete.G			Sacral			R.EIAS			LEIAS			R.Crete			L.Crete			R.GT			R.Hip			R.Knee.Med			R.Knee.Lat			R.TTA			R.Fibula			R.Ankle.Med			R.Ankle.Lat			R.Calca			R.Foot.Med			R.Foot.Lat			L.GT			L.Hip			L.Knee.Med			L.Knee.Lat			L.TTA			L.Fibula			L.Ankle.Med			L.Ankle.Lat			L.Calca			L.Foot.Med			L.Foot.Lat			StartG			StartD			StartAvt			StartArr			
		X1	Y1	Z1	X2	Y2	Z2	X3	Y3	Z3	X4	Y4	Z4	X5	Y5	Z5	X6	Y6	Z6	X7	Y7	Z7	X8	Y8	Z8	X9	Y9	Z9	X10	Y10	Z10	X11	Y11	Z11	X12	Y12	Z12	X13	Y13	Z13	X14	Y14	Z14	X15	Y15	Z15	X16	Y16	Z16	X17	Y17	Z17	X18	Y18	Z18	X19	Y19	Z19	X20	Y20	Z20	X21	Y21	Z21	X22	Y22	Z22	X23	Y23	Z23	X24	Y24	Z24	X25	Y25	Z25	X26	Y26	Z26	X27	Y27	Z27	X28	Y28	Z28	X29	Y29	Z29	X30	Y30	Z30	X31	Y31	Z31	X32	Y32	Z32	X33	Y33	Z33	X34	Y34	Z34	X35	Y35	Z35	X36	Y36	Z36	X37	Y37	Z37	X38	Y38	Z38	X39	Y39	Z39	X40	Y40	Z40	X41	Y41	Z41	X42	Y42	Z42	X43	Y43	Z43	X44	Y44	Z44	X45	Y45	Z45	X46	Y46	Z46	X47	Y47	Z47	X48	Y48	Z48	X49	Y49	Z49	X50	Y50	Z50	X51	Y51	Z51	X52	Y52	Z52	X53	Y53	Z53	X54	Y54	Z54	X55	Y55	Z55	X56	Y56	Z56	X57	Y57	Z57	X58	Y58	Z58	X59	Y59	Z59	

493	1.968	192.66100	73.02367	694.88544	34.65344	69.31277	829.51569	-98.40752	69.06806	884.01849	185.33545	-27.29482	727.67139	133.81509	-6.00996	591.90076	188.98009	-45.95576	650.60864	171.11003	-129.12976	603.85474	83.53169	-176.63313	494.48401	-17.10909	-126.33095	412.73996	70.92136	-182.84077	403.11057	26.52975	-199.94606	259.03040	-47.38980	-205.05878	130.04047	-3.30256	-165.69962	119.55553	-30.83884	-219.58617	95.42995	174.84003	188.73924	735.63458	127.98244	164.78645	592.96118	175.30266	214.51404	643.88116	154.39729	293.05829	591.98694	41.56614	337.81680	519.22101	-12.39502	283.93723	412.12384	68.88095	343.93747	408.84845	-21.32026	360.36365	294.42224	-62.00578	356.80966	127.95921	-13.72474	318.32309	105.32233	-32.06396	370.05063	93.39816	410.46057	81.60776	588.57019	370.27002	76.13498	481.65497	351.55582	77.27780	689.25940	-293.03949	88.17155	932.53619	-232.88956	-9.82073	727.14880	-206.09883	144.73203	717.65643	-206.64191	-73.66256	836.77338	-181.81912	213.38988	814.34015	-345.41705	-102.51095	836.17969	-271.24561	-39.48399	631.35101	-446.87869	42.92133	405.79568	-423.64383	-71.20609	408.30978	-470.35480	-9.19660	305.65424	-516.10571	-84.23974	329.41159	-779.68610	32.69877	214.71983	-792.14978	-56.28520	225.57423	-843.35999	-5.46993	271.24112	-764.22241	-4.81595	58.46463	-771.95135	-63.67343	63.73275	-277.66602	266.98642	820.63849	-277.23746	268.72507	655.00842	-239.92931	112.46347	423.46472	-209.97710	217.44164	414.71704	-233.77739	163.00972	309.77032	-338.72610	236.37996	330.82266	-543.63757	122.00278	204.06000	-566.40625	213.68765	213.46410	-615.24567	162.88318	256.96027	-512.56921	131.60986	52.17221	-509.41888	205.84961	59.51053	-596.27881	267.13358	25.98435	-930.85370	-121.68306	33.33731	-519.89203	71.44118	45.13732	-1120.16882	77.79927	55.90027	
494	1.972	192.58467	73.00970	694.94574	34.51241	69.37536	829.52069	-98.53502	69.15898	883.97705	185.24352	-27.29030	727.69122	133.82318	-5.95492	591.88300	188.96144	-45.91047	650.65051	171.07381	-129.10725	603.88483	83.46568	-176.59821	494.47513	-17.13706	-126.31480	412.74109	70.90475	-182.82785	403.12775	26.53091	-199.93585	259.04797	-47.38288	-205.05028	130.04109	-3.30927	-165.67950	119.57814	-30.84191	-219.59488	95.44707	174.75197	188.75632	735.63226	127.98878	164.79724	592.91663	175.28389	214.52423	643.88751	154.38007	293.05832	591.99506	41.52154	337.88559	519.19885	-12.46687	284.03354	412.15839	68.84926	343.94205	408.83945	-21.33549	360.39023	294.42444	-62.01135	356.81134	127.96238	-13.72775	318.32477	105.33044	-32.06829	370.06284	93.39878	410.38727	81.62771	588.66742	370.25439	76.13576	481.71362	351.46451	77.25105	689.29749	-293.15927	88.24830	932.45483	-232.94116	-9.71813	727.07428	-206.15373	144.76425	717.62048	-206.73868	-73.60488	836.75220	-181.92693	213.43083	814.26843	-345.49185	-102.46202	836.18286	-271.25992	-39.46653	631.33301	-446.89664	42.98020	405.74359	-423.76022	-71.13566	408.18167	-470.33392	-9.18328	305.55911	-516.12775	-84.23320	329.37808	-779.74567	32.73293	214.79338	-792.20892	-56.27754	225.60352	-843.41681	-5.44869	271.21106	-764.24091	-4.80428	58.46216	-771.95630	-63.66578	63.73804	-277.74518	267.09607	820.60748	-277.34494	268.86218	654.94348	-239.94313	112.46972	423.43338	-209.96620	217.46497	414.68079	-233.75745	163.01372	309.71057	-338.72147	236.37383	330.80643	-543.64050	121.99709	204.06416	-566.40442	213.67569	213.46101	-615.25739	162.91467	256.98865	-512.56573	131.60655	52.17118	-509.41693	205.85527	59.51178	-596.28113	267.12952	25.97929	-930.85260	-121.68303	33.33989	-519.90179	71.43452	45.13723	-1120.16797	77.79764	55.89937	
495	1.976	192.50491	72.99268	694.99908	34.36711	69.44178	829.52869	-98.66436	69.24733	883.93890	185.14853	-27.28569	727.70929	133.83455	-5.89835	591.86139	188.94402	-45.86332	650.69122	171.03966	-129.08289	603.91687	83.39452	-176.56326	494.46490	-17.16978	-126.29727	412.74384	70.88924	-182.81108	403.14206	26.52962	-199.92603	259.06213	-47.38097	-205.03751	130.04372	-3.31806	-165.65556	119.60178	-30.85109	-219.59937	95.46320	174.66537	188.77049	735.63239	127.99184	164.80898	592.87555	175.26500	214.53532	643.88812	154.35954	293.05966	592.00092	41.46510	337.96194	519.17224	-12.54214	284.13568	412.19128	68.81342	343.94818	408.82773	-21.35389	360.42227	294.42758	-62.02278	356.81906	127.96720	-13.73418	318.32773	105.34228	-32.08556	370.09409	93.39544	410.31531	81.64122	588.77661	370.24048	76.13544	481.78845	351.37491	77.21730	689.33936	-293.27701	88.32893	932.37109	-232.99678	-9.60984	726.99512	-206.21252	144.79797	717.58398	-206.83337	-73.54607	836.72986	-182.03902	213.47310	814.19604	-345.56604	-102.41522	836.18909	-271.27457	-39.44695	631.31464	-446.91214	43.03662	405.68927	-423.86856	-71.07538	408.06595	-470.30255	-9.16370	305.47971	-516.14050	-84.22959	329.33160	-779.80743	32.76435	214.86453	-792.26343	-56.27388	225.63031	-843.47046	-5.43399	271.18088	-764.25964	-4.79207	58.45933	-771.96008	-63.66002	63.74203	-277.82324	267.20392	820.57489	-277.44482	268.99106	654.87579	-239.95953	112.47648	423.39923	-209.95238	217.48430	414.64142	-233.74139	163.01491	309.65390	-338.71707	236.37227	330.79245	-543.64600	121.99181	204.06976	-566.40295	213.66692	213.45862	-615.28113	162.94215	257.02005	-512.56213	131.60118	52.17148	-509.41544	205.85968	59.51255	-596.28320	267.12598	25.97395	-930.85187	-121.68192	33.34261	-519.91302	71.42741	45.13544	-1120.16748	77.79460	55.89860	
496	1.980	192.42114	72.97539	695.04388	34.21778	69.51097	829.53851	-98.79456	69.33278	883.90497	185.05061	-27.28045	727.72589	133.84679	-5.83819	591.83740	188.92671	-45.81313	650.72937	171.00661	-129.05647	603.95032	83.32094	-176.52888	494.45358	-17.20763	-126.27965	412.74899	70.87434	-182.79102	403.15286	26.52626	-199.91737	259.07288	-47.38321	-205.02112	130.04628	-3.32794	-165.62943	119.62529	-30.86478	-219.60031	95.47691	174.57854	188.78246	735.63519	127.99026	164.82082	592.83820	175.24416	214.54738	643.88306	154.33426	293.06281	592.00616	41.39730	338.04593	519.14111	-12.62107	284.24341	412.22226	68.77379	343.95566	408.81317	-21.37534	360.45963	294.43182	-62.04007	356.83276	127.97319	-13.74402	318.33170	105.35765	-32.11504	370.14294	93.38751	410.24551	81.64588	588.89819	370.22864	76.13238	481.88162	351.28519	77.17715	689.38647	-293.39313	88.41283	932.28571	-233.05925	-9.49438	726.90942	-206.27498	144.83499	717.54742	-206.92758	-73.48502	836.70538	-182.15465	213.51735	814.12402	-345.63913	-102.37100	836.19720	-271.29007	-39.42469	631.29590	-446.92670	43.08961	405.63309	-423.96518	-71.02438	407.96307	-470.26288	-9.13924	305.41360	-516.14496	-84.22836	329.27124	-779.86920	32.79248	214.93181	-792.31250	-56.27376	225.65321	-843.52075	-5.42622	271.15024	-764.27808	-4.77971	58.45629	-771.96283	-63.65592	63.74488	-277.89948	267.30917	820.53931	-277.53680	269.11176	654.80542	-239.97787	112.48394	423.36264	-209.93538	217.49979	414.59781	-233.72890	163.01305	309.60010	-338.71405	236.37590	330.78018	-543.65527	121.98598	204.07698	-566.40198	213.66122	213.45674	-615.31818	162.96506	257.05484	-512.55817	131.59320	52.17313	-509.41458	205.86278	59.51306	-596.28503	267.12286	25.96831	-930.85205	-121.68011	33.34539	-519.92535	71.42026	45.13192	-1120.16724	77.79025	55.89796	
497	1.984	192.33310	72.96037	695.07861	34.06516	69.58150	829.54858	-98.92462	69.41550	883.87579	184.95038	-27.27428	727.74121	133.85767	-5.77230	591.81262	188.90866	-45.75871	650.76373	170.97343	-129.02798	603.98425	83.24771	-176.49557	494.44138	-17.25025	-126.26350	412.75723	70.85931	-182.76822	403.15979	26.52106	-199.91071	259.08002	-47.38887	-205.00172	130.04683	-3.33807	-165.60324	119.64697	-30.88153	-219.59828	95.48718	174.48999	188.79306	735.64056	127.98294	164.83174	592.80481	175.21953	214.56035	643.87219	154.30299	293.06790	592.01245	41.31925	338.13675	519.10620	-12.70390	284.35599	412.25104	68.73050	343.96429	408.79565	-21.39972	360.50174	294.43741	-62.06322	356.85196	127.97954	-13.75729	318.33618	105.37626	-32.15501	370.20694	93.37471	410.17868	81.63993	589.03149	370.21854	76.12511	481.99390	351.19342	77.13168	689.43994	-293.50864	88.49893	932.19977	-233.13074	-9.37135	726.81610	-206.34135	144.87654	717.51099	-207.02264	-73.42091	836.67834	-182.27319	213.56415	814.05261	-345.71109	-102.32928	836.20587	-271.30692	-39.39951	631.27643	-446.94171	43.13804	405.57547	-424.04764	-70.98151	407.87271	-470.21689	-9.11184	305.35806	-516.14160	-84.22902	329.19611	-779.92871	32.81700	214.99394	-792.35626	-56.27674	225.67130	-843.56757	-5.42567	271.11902	-764.29584	-4.76788	58.45318	-771.96466	-63.65327	63.74674	-277.97339	267.41092	820.49921	-277.62106	269.22464	654.73260	-239.99731	112.49162	423.32401	-209.91510	217.51180	414.54871	-233.71933	163.00798	309.54913	-338.71344	236.38544	330.76898	-543.66968	121.97863	204.08591	-566.40161	213.65831	213.45526	-615.36945	162.98299	257.09317	-512.55359	131.58211	52.17608	-509.41446	205.86447	59.51357	-596.28668	267.11987	25.96227	-930.85352	-121.67801	33.34798	-519.93805	71.41367	45.12671	-1120.16711	77.78487	55.89743	
